<mxfile host="65bd71144e">
    <diagram id="r4ctrfgrZI5xsfbhezwR" name="Page-1">
        <mxGraphModel dx="876" dy="497" grid="1" gridSize="10" guides="1" tooltips="1" connect="1" arrows="1" fold="1" page="1" pageScale="1" pageWidth="850" pageHeight="1100" math="0" shadow="0">
            <root>
                <mxCell id="0"/>
                <mxCell id="1" parent="0"/>
                <mxCell id="2" value="&lt;b&gt;&lt;font style=&quot;font-size: 15px;&quot;&gt;Criado por Alan Marques&lt;br&gt;&lt;br&gt;&lt;/font&gt;&lt;/b&gt;" style="text;html=1;align=center;verticalAlign=middle;resizable=0;points=[];autosize=1;strokeColor=none;fillColor=none;" parent="1" vertex="1">
                    <mxGeometry width="200" height="50" as="geometry"/>
                </mxCell>
                <mxCell id="6" value="" style="whiteSpace=wrap;html=1;aspect=fixed;fontSize=15;fillColor=#6a00ff;fontColor=#ffffff;strokeColor=#3700CC;" parent="1" vertex="1">
                    <mxGeometry x="30" y="70" width="210" height="210" as="geometry"/>
                </mxCell>
                <mxCell id="8" value="1- Identificação Dos Atores:" style="text;html=1;align=center;verticalAlign=middle;resizable=0;points=[];autosize=1;strokeColor=none;fillColor=none;fontSize=15;" parent="1" vertex="1">
                    <mxGeometry x="35" y="80" width="210" height="30" as="geometry"/>
                </mxCell>
                <mxCell id="9" value="*Clientes:&lt;br&gt;-Convidados da festa." style="text;html=1;align=center;verticalAlign=middle;resizable=0;points=[];autosize=1;strokeColor=none;fillColor=none;fontSize=15;" parent="1" vertex="1">
                    <mxGeometry x="50" y="130" width="170" height="50" as="geometry"/>
                </mxCell>
                <mxCell id="10" value="*Funcionário:&lt;br&gt;-Organizador da festa;&lt;br&gt;-Segurança;" style="text;html=1;align=center;verticalAlign=middle;resizable=0;points=[];autosize=1;strokeColor=none;fillColor=none;fontSize=15;" parent="1" vertex="1">
                    <mxGeometry x="50" y="180" width="170" height="70" as="geometry"/>
                </mxCell>
                <mxCell id="11" value="" style="whiteSpace=wrap;html=1;aspect=fixed;fontSize=15;fillColor=#6a00ff;fontColor=#ffffff;strokeColor=#3700CC;" parent="1" vertex="1">
                    <mxGeometry x="260" y="70" width="210" height="210" as="geometry"/>
                </mxCell>
                <mxCell id="14" value="2- Identificar Casos de Uso:" style="text;html=1;align=center;verticalAlign=middle;resizable=0;points=[];autosize=1;strokeColor=none;fillColor=none;fontSize=15;" parent="1" vertex="1">
                    <mxGeometry x="260" y="80" width="210" height="30" as="geometry"/>
                </mxCell>
                <mxCell id="15" value="*Criar conta;&lt;br&gt;*Confirmar E-mail;&lt;br&gt;*Fazer login;&lt;br&gt;*Inserir código da festa;&lt;br&gt;*Abrir QrCode;&lt;br&gt;*Realizar envios de fotos;&lt;br&gt;*Curtir fotos.&lt;br&gt;*Ler QrCode;&lt;br&gt;*Confirmar Acesso;&lt;br&gt;* Download de fotos" style="text;html=1;align=center;verticalAlign=middle;resizable=0;points=[];autosize=1;fontSize=15;" parent="1" vertex="1">
                    <mxGeometry x="270" y="95" width="190" height="190" as="geometry"/>
                </mxCell>
                <mxCell id="16" value="Convidado" style="shape=umlActor;verticalLabelPosition=bottom;verticalAlign=top;html=1;outlineConnect=0;fontSize=15;" parent="1" vertex="1">
                    <mxGeometry x="60" y="630" width="50" height="100" as="geometry"/>
                </mxCell>
                <mxCell id="17" value="Dono Da Festa" style="shape=umlActor;verticalLabelPosition=bottom;verticalAlign=top;html=1;outlineConnect=0;fontSize=15;" parent="1" vertex="1">
                    <mxGeometry x="65" y="820" width="45" height="90" as="geometry"/>
                </mxCell>
                <mxCell id="365" value="" style="whiteSpace=wrap;html=1;" vertex="1" parent="1">
                    <mxGeometry x="160" y="300" width="770" height="1010" as="geometry"/>
                </mxCell>
                <mxCell id="344" value="Criar conta" style="ellipse;whiteSpace=wrap;html=1;fontSize=15;" parent="1" vertex="1">
                    <mxGeometry x="230" y="410" width="120" height="80" as="geometry"/>
                </mxCell>
                <mxCell id="367" value="&lt;b&gt;&lt;font style=&quot;font-size: 21px;&quot;&gt;Party Invitation&lt;br&gt;&lt;/font&gt;&lt;/b&gt;" style="text;html=1;align=center;verticalAlign=middle;resizable=0;points=[];autosize=1;strokeColor=none;fillColor=none;fontSize=15;" vertex="1" parent="1">
                    <mxGeometry x="455" y="330" width="180" height="40" as="geometry"/>
                </mxCell>
                <mxCell id="373" value="" style="endArrow=classic;html=1;" edge="1" parent="1" source="17" target="16">
                    <mxGeometry relative="1" as="geometry">
                        <mxPoint x="75" y="710" as="sourcePoint"/>
                        <mxPoint x="75" y="710" as="targetPoint"/>
                    </mxGeometry>
                </mxCell>
                <mxCell id="374" value="" style="shape=message;html=1;outlineConnect=0;" vertex="1" parent="373">
                    <mxGeometry width="20" height="14" relative="1" as="geometry">
                        <mxPoint x="-10" y="-7" as="offset"/>
                    </mxGeometry>
                </mxCell>
                <mxCell id="343" value="&lt;span style=&quot;font-size: 15px;&quot;&gt;Fazer Login&lt;/span&gt;" style="ellipse;whiteSpace=wrap;html=1;" parent="1" vertex="1">
                    <mxGeometry x="230" y="570" width="120" height="80" as="geometry"/>
                </mxCell>
                <mxCell id="345" value="&lt;font style=&quot;font-size: 14px;&quot;&gt;Confirmar E-mail&lt;/font&gt;" style="ellipse;whiteSpace=wrap;html=1;" parent="1" vertex="1">
                    <mxGeometry x="730" y="370" width="120" height="80" as="geometry"/>
                </mxCell>
                <mxCell id="347" value="&lt;span style=&quot;font-size: 14px;&quot;&gt;Realizar envios de fotos e vídeos&lt;/span&gt;" style="ellipse;whiteSpace=wrap;html=1;" parent="1" vertex="1">
                    <mxGeometry x="230" y="880" width="120" height="80" as="geometry"/>
                </mxCell>
                <mxCell id="349" value="&lt;span style=&quot;font-size: 15px;&quot;&gt;Curtir Fotos&lt;/span&gt;" style="ellipse;whiteSpace=wrap;html=1;" parent="1" vertex="1">
                    <mxGeometry x="470" y="880" width="120" height="80" as="geometry"/>
                </mxCell>
                <mxCell id="350" value="&lt;font style=&quot;font-size: 14px;&quot;&gt;Download de fotos&lt;/font&gt;" style="ellipse;whiteSpace=wrap;html=1;" parent="1" vertex="1">
                    <mxGeometry x="720" y="880" width="120" height="80" as="geometry"/>
                </mxCell>
                <mxCell id="376" value="&lt;br&gt;&lt;span style=&quot;font-size: 15px;&quot;&gt;Inserir o código de convite&lt;/span&gt;" style="ellipse;whiteSpace=wrap;html=1;" vertex="1" parent="1">
                    <mxGeometry x="470" y="410" width="120" height="80" as="geometry"/>
                </mxCell>
                <mxCell id="378" style="edgeStyle=none;html=1;exitX=0.75;exitY=0.1;exitDx=0;exitDy=0;exitPerimeter=0;entryX=0;entryY=0.5;entryDx=0;entryDy=0;" edge="1" parent="1" source="16" target="344">
                    <mxGeometry relative="1" as="geometry"/>
                </mxCell>
                <mxCell id="387" style="edgeStyle=none;html=1;exitX=1;exitY=0.3333333333333333;exitDx=0;exitDy=0;exitPerimeter=0;entryX=0;entryY=0.5;entryDx=0;entryDy=0;" edge="1" parent="1" source="16" target="343">
                    <mxGeometry relative="1" as="geometry"/>
                </mxCell>
                <mxCell id="423" style="edgeStyle=none;html=1;exitX=0;exitY=0;exitDx=0;exitDy=0;entryX=1;entryY=0.3333333333333333;entryDx=0;entryDy=0;entryPerimeter=0;" edge="1" parent="1" source="388" target="16">
                    <mxGeometry relative="1" as="geometry">
                        <mxPoint x="110.00000000000009" y="690.0000000000001" as="targetPoint"/>
                    </mxGeometry>
                </mxCell>
                <mxCell id="388" value="&lt;span style=&quot;font-size: 15px;&quot;&gt;Mostrar&lt;br&gt;notificações&lt;/span&gt;" style="ellipse;whiteSpace=wrap;html=1;" vertex="1" parent="1">
                    <mxGeometry x="230" y="734.6" width="120" height="80" as="geometry"/>
                </mxCell>
                <mxCell id="389" value="&lt;span style=&quot;font-size: 15px;&quot;&gt;Exibir contagem para a festa&lt;/span&gt;" style="ellipse;whiteSpace=wrap;html=1;" vertex="1" parent="1">
                    <mxGeometry x="470" y="740" width="120" height="80" as="geometry"/>
                </mxCell>
                <mxCell id="409" style="edgeStyle=none;html=1;entryX=0;entryY=0;entryDx=0;entryDy=0;exitX=0.5;exitY=0.5;exitDx=0;exitDy=0;exitPerimeter=0;" edge="1" parent="1" source="16" target="347">
                    <mxGeometry relative="1" as="geometry">
                        <mxPoint x="130.85" y="754.6" as="sourcePoint"/>
                    </mxGeometry>
                </mxCell>
                <mxCell id="410" value="&amp;lt;&amp;lt;include&amp;gt;&amp;gt;" style="html=1;verticalAlign=bottom;labelBackgroundColor=none;endArrow=open;endFill=0;dashed=1;entryX=0;entryY=0.5;entryDx=0;entryDy=0;" edge="1" parent="1" source="347" target="349">
                    <mxGeometry width="160" relative="1" as="geometry">
                        <mxPoint x="340.85" y="864.6" as="sourcePoint"/>
                        <mxPoint x="480.85" y="864.6" as="targetPoint"/>
                    </mxGeometry>
                </mxCell>
                <mxCell id="411" value="&amp;lt;&amp;lt;include&amp;gt;&amp;gt;" style="html=1;verticalAlign=bottom;labelBackgroundColor=none;endArrow=open;endFill=0;dashed=1;entryX=0;entryY=0.5;entryDx=0;entryDy=0;exitX=0.99;exitY=0.568;exitDx=0;exitDy=0;exitPerimeter=0;" edge="1" parent="1" source="388" target="389">
                    <mxGeometry width="160" relative="1" as="geometry">
                        <mxPoint x="350.85" y="754.6" as="sourcePoint"/>
                        <mxPoint x="490.85" y="754.6" as="targetPoint"/>
                        <Array as="points"/>
                    </mxGeometry>
                </mxCell>
                <mxCell id="412" value="&amp;lt;&amp;lt;include&amp;gt;&amp;gt;" style="html=1;verticalAlign=bottom;labelBackgroundColor=none;endArrow=open;endFill=0;dashed=1;entryX=0;entryY=0.5;entryDx=0;entryDy=0;exitX=1;exitY=0;exitDx=0;exitDy=0;" edge="1" parent="1" source="343" target="440">
                    <mxGeometry width="160" relative="1" as="geometry">
                        <mxPoint x="340" y="550" as="sourcePoint"/>
                        <mxPoint x="470.0000000000002" y="560" as="targetPoint"/>
                    </mxGeometry>
                </mxCell>
                <mxCell id="413" value="&amp;lt;&amp;lt;include&amp;gt;&amp;gt;" style="html=1;verticalAlign=bottom;labelBackgroundColor=none;endArrow=open;endFill=0;dashed=1;entryX=0;entryY=0.5;entryDx=0;entryDy=0;exitX=1;exitY=0.5;exitDx=0;exitDy=0;" edge="1" parent="1" source="344" target="376">
                    <mxGeometry width="160" relative="1" as="geometry">
                        <mxPoint x="360" y="440" as="sourcePoint"/>
                        <mxPoint x="510" y="440" as="targetPoint"/>
                    </mxGeometry>
                </mxCell>
                <mxCell id="414" value="&amp;lt;&amp;lt;include&amp;gt;&amp;gt;" style="html=1;verticalAlign=bottom;labelBackgroundColor=none;endArrow=open;endFill=0;dashed=1;entryX=0;entryY=0.5;entryDx=0;entryDy=0;exitX=1;exitY=0.5;exitDx=0;exitDy=0;" edge="1" parent="1" source="376" target="345">
                    <mxGeometry width="160" relative="1" as="geometry">
                        <mxPoint x="590" y="440" as="sourcePoint"/>
                        <mxPoint x="660" y="440" as="targetPoint"/>
                    </mxGeometry>
                </mxCell>
                <mxCell id="419" value="&amp;lt;&amp;lt;include&amp;gt;&amp;gt;" style="html=1;verticalAlign=bottom;labelBackgroundColor=none;endArrow=open;endFill=0;dashed=1;entryX=0;entryY=0.5;entryDx=0;entryDy=0;exitX=1;exitY=0.5;exitDx=0;exitDy=0;" edge="1" parent="1" source="349" target="350">
                    <mxGeometry width="160" relative="1" as="geometry">
                        <mxPoint x="600.85" y="874.6" as="sourcePoint"/>
                        <mxPoint x="690.85" y="874.6" as="targetPoint"/>
                    </mxGeometry>
                </mxCell>
                <mxCell id="424" value="&lt;font style=&quot;font-size: 13px;&quot;&gt;Tirar fotos através da câmera integrada&lt;/font&gt;" style="ellipse;whiteSpace=wrap;html=1;fontSize=14;" vertex="1" parent="1">
                    <mxGeometry x="230" y="1020" width="120" height="80" as="geometry"/>
                </mxCell>
                <mxCell id="426" style="edgeStyle=none;html=1;entryX=0;entryY=0;entryDx=0;entryDy=0;fontSize=13;" edge="1" parent="1" source="16" target="424">
                    <mxGeometry relative="1" as="geometry">
                        <mxPoint x="130.85" y="754.6" as="sourcePoint"/>
                    </mxGeometry>
                </mxCell>
                <mxCell id="428" value="&amp;lt;&amp;lt;include&amp;gt;&amp;gt;" style="html=1;verticalAlign=bottom;labelBackgroundColor=none;endArrow=open;endFill=0;dashed=1;fontSize=13;entryX=0.396;entryY=1.016;entryDx=0;entryDy=0;entryPerimeter=0;exitX=1;exitY=0.5;exitDx=0;exitDy=0;" edge="1" parent="1" source="424" target="350">
                    <mxGeometry width="160" relative="1" as="geometry">
                        <mxPoint x="360.85" y="1004.6" as="sourcePoint"/>
                        <mxPoint x="520.85" y="1004.6" as="targetPoint"/>
                    </mxGeometry>
                </mxCell>
                <mxCell id="429" value="Segurança&lt;br&gt;" style="shape=umlActor;verticalLabelPosition=bottom;verticalAlign=top;html=1;outlineConnect=0;fontSize=15;" vertex="1" parent="1">
                    <mxGeometry x="62.5" y="970" width="45" height="90" as="geometry"/>
                </mxCell>
                <mxCell id="439" value="&lt;span style=&quot;font-size: 15px;&quot;&gt;Exibir erro na verificação de login&lt;/span&gt;" style="ellipse;whiteSpace=wrap;html=1;" vertex="1" parent="1">
                    <mxGeometry x="470" y="630" width="120" height="80" as="geometry"/>
                </mxCell>
                <mxCell id="440" value="&lt;span style=&quot;font-size: 15px;&quot;&gt;Gerar QrCode&lt;/span&gt;" style="ellipse;whiteSpace=wrap;html=1;" vertex="1" parent="1">
                    <mxGeometry x="470" y="520" width="120" height="80" as="geometry"/>
                </mxCell>
                <mxCell id="441" value="&amp;lt;&amp;lt;include&amp;gt;&amp;gt;" style="html=1;verticalAlign=bottom;labelBackgroundColor=none;endArrow=open;endFill=0;dashed=1;fontSize=14;entryX=1;entryY=0.5;entryDx=0;entryDy=0;" edge="1" parent="1" source="439" target="343">
                    <mxGeometry width="160" relative="1" as="geometry">
                        <mxPoint x="590" y="560" as="sourcePoint"/>
                        <mxPoint x="670" y="560" as="targetPoint"/>
                    </mxGeometry>
                </mxCell>
                <mxCell id="445" style="edgeStyle=none;html=1;fontSize=14;exitX=1;exitY=1;exitDx=0;exitDy=0;exitPerimeter=0;" edge="1" target="446" parent="1" source="429">
                    <mxGeometry relative="1" as="geometry">
                        <mxPoint x="128.35" y="1084.6" as="sourcePoint"/>
                    </mxGeometry>
                </mxCell>
                <mxCell id="446" value="&lt;font style=&quot;font-size: 14px;&quot;&gt;Escanear QrCode&lt;/font&gt;" style="ellipse;whiteSpace=wrap;html=1;fontSize=13;" vertex="1" parent="1">
                    <mxGeometry x="230" y="1170" width="120" height="80" as="geometry"/>
                </mxCell>
                <mxCell id="447" value="&amp;lt;&amp;lt;include&amp;gt;&amp;gt;" style="html=1;verticalAlign=bottom;labelBackgroundColor=none;endArrow=open;endFill=0;dashed=1;fontSize=14;entryX=0;entryY=0.5;entryDx=0;entryDy=0;" edge="1" target="448" parent="1" source="446">
                    <mxGeometry width="160" relative="1" as="geometry">
                        <mxPoint x="370.85" y="1104.6" as="sourcePoint"/>
                        <mxPoint x="480.85" y="1103.6" as="targetPoint"/>
                    </mxGeometry>
                </mxCell>
                <mxCell id="448" value="Verificar QrCode" style="ellipse;whiteSpace=wrap;html=1;fontSize=14;" vertex="1" parent="1">
                    <mxGeometry x="470" y="1170" width="120" height="80" as="geometry"/>
                </mxCell>
                <mxCell id="449" value="&amp;lt;&amp;lt;include&amp;gt;&amp;gt;" style="html=1;verticalAlign=bottom;labelBackgroundColor=none;endArrow=open;endFill=0;dashed=1;fontSize=14;entryX=0;entryY=0.5;entryDx=0;entryDy=0;" edge="1" target="450" parent="1" source="448">
                    <mxGeometry width="160" relative="1" as="geometry">
                        <mxPoint x="600.85" y="1104.6" as="sourcePoint"/>
                        <mxPoint x="730.85" y="1104.6" as="targetPoint"/>
                    </mxGeometry>
                </mxCell>
                <mxCell id="450" value="Exibir confirmação de entrada" style="ellipse;whiteSpace=wrap;html=1;fontSize=14;" vertex="1" parent="1">
                    <mxGeometry x="720" y="1170" width="120" height="80" as="geometry"/>
                </mxCell>
                <mxCell id="452" value="&lt;font style=&quot;font-size: 14px;&quot;&gt;Exibir erro na verificação de código de convite&lt;/font&gt;" style="ellipse;whiteSpace=wrap;html=1;" vertex="1" parent="1">
                    <mxGeometry x="730" y="500" width="120" height="80" as="geometry"/>
                </mxCell>
                <mxCell id="454" value="&amp;lt;&amp;lt;include&amp;gt;&amp;gt;" style="html=1;verticalAlign=bottom;labelBackgroundColor=none;endArrow=open;endFill=0;dashed=1;fontSize=14;exitX=0;exitY=0.5;exitDx=0;exitDy=0;" edge="1" parent="1" source="452" target="376">
                    <mxGeometry x="0.0003" width="160" relative="1" as="geometry">
                        <mxPoint x="780" y="560" as="sourcePoint"/>
                        <mxPoint x="870" y="690" as="targetPoint"/>
                        <mxPoint as="offset"/>
                    </mxGeometry>
                </mxCell>
            </root>
        </mxGraphModel>
    </diagram>
</mxfile>